<?xml version="1.0" standalone="yes"?>
<svg xmlns="http://www.w3.org/2000/svg" width="512" height="512">
<path style="fill:#ffffff; stroke:none;" d="M0 0L0 57C3.42866 49.9231 4.76321 42.0289 8.6659 35C18.0954 18.017 37.0775 2.73941 57 1C51.7835 -1.1889 44.6192 0 39 0L0 0z"/>
<path style="fill:#475993; stroke:none;" d="M254 512L254 329L219 329C213.064 329 206.231 329.737 201.094 326.121C195.676 322.307 196.341 316.824 195.576 311C193.734 296.978 194.995 282.137 195 268C195.002 261.919 194.844 254.952 200.189 250.854C204.949 247.205 211.375 248 217 248L254 248C254 199.323 246.321 140.616 291 107.756C317.28 88.4284 347.936 89 379 89C389.148 89 407.231 85.4212 411.196 98.0008C413.291 104.649 412 113.096 412 120L412 142C411.993 146.442 412.061 151.136 409.297 154.895C404.258 161.749 394.419 160 387 160C372.461 160 352.42 157.935 341.185 169.185C333.669 176.712 333 188.014 333 198L333 248L387 248C393.698 248 403.26 246.262 408.956 250.514C415.319 255.264 413.9 262.147 413.166 269C411.666 283.006 410.098 297.031 408.282 311C407.481 317.157 407.038 323.462 400.985 326.86C394.729 330.372 385.886 329 379 329L333 329L333 512L421 512C431.8 512 443.286 513.106 454 511.711C468.436 509.83 482.83 502.334 492.961 491.985C502.71 482.027 509.901 467.895 511.711 454C512.855 445.213 512 435.854 512 427L512 386L512 127L512 85C512 76.1457 512.855 66.7872 511.711 58C509.901 44.105 502.71 29.9733 492.961 20.0146C482.83 9.6662 468.436 2.17004 454 0.289368C444.249 -0.980896 433.827 0 424 0L373 0L165 0C130.443 0 95.5192 -1.48566 61 0.0393677C30.5462 1.3848 2.20996 29.7457 0.0895062 60C-2.17619 92.3267 0 125.586 0 158L0 353L0 424C0 443.141 -0.955445 460.672 8.6659 478C18.4947 495.702 36.9652 508.407 57 511.561C67.6312 513.234 79.2497 512 90 512L254 512z"/>
<path style="fill:#ffffff; stroke:none;" d="M455 0C461.369 3.08572 468.632 4.11227 475 7.4892C492.822 16.9399 509.184 36.2035 511 57C513.189 51.7834 512 44.6192 512 39L512 0L455 0M254 248L216 248C210.529 248 203.88 247.1 199.343 250.854C194.648 254.739 195.002 261.496 195 267C194.995 281.098 193.633 295.998 195.285 310C195.942 315.568 195.185 322.389 200.189 326.121C205.155 329.824 212.184 329 218 329L254 329L254 512L333 512L333 329L380 329C386.811 329 395.803 330.428 401.956 326.86C407.679 323.542 407.633 316.791 408.424 311C410.375 296.707 411.524 282.299 413.424 268C414.216 262.043 415.223 254.715 409.891 250.514C404.396 246.185 394.553 248 388 248L333 248L333 201C333 190.206 333.242 178.437 341.185 170.093C352.879 157.809 373.559 160 389 160C394.013 160 400.26 160.965 404.985 158.991C410.4 156.728 411.845 151.379 411.985 146C412.264 135.349 412 124.655 412 114C412 108.571 412.862 102.242 411.196 97.0038C407.452 85.2286 388.508 89 379 89C347.273 89 315.586 88.205 289 108.503C245.922 141.393 254 200.3 254 248M0 455L0 512L57 512C51.6391 509.403 45.4971 508.33 40 505.822C27.8689 500.287 17.5412 491.302 10.439 480C5.46325 472.082 3.96514 463.184 0 455M511 455C508.658 481.819 481.802 508.66 455 511C460.216 513.189 467.381 512 473 512L512 512L512 473C512 467.381 513.189 460.216 511 455z"/>
</svg>
